<svg id="visual" viewBox="0 0 900 600" width="900" height="600" xmlns="http://www.w3.org/2000/svg" xmlns:xlink="http://www.w3.org/1999/xlink" version="1.1"><rect x="0" y="0" width="900" height="600" fill="#f2eee7"></rect><defs><linearGradient id="grad1_0" x1="33.3%" y1="0%" x2="100%" y2="100%"><stop offset="20%" stop-color="#343f3a" stop-opacity="1"></stop><stop offset="80%" stop-color="#343f3a" stop-opacity="1"></stop></linearGradient></defs><defs><linearGradient id="grad1_1" x1="33.3%" y1="0%" x2="100%" y2="100%"><stop offset="20%" stop-color="#343f3a" stop-opacity="1"></stop><stop offset="80%" stop-color="#f2eee7" stop-opacity="1"></stop></linearGradient></defs><defs><linearGradient id="grad2_0" x1="0%" y1="0%" x2="66.7%" y2="100%"><stop offset="20%" stop-color="#343f3a" stop-opacity="1"></stop><stop offset="80%" stop-color="#343f3a" stop-opacity="1"></stop></linearGradient></defs><defs><linearGradient id="grad2_1" x1="0%" y1="0%" x2="66.7%" y2="100%"><stop offset="20%" stop-color="#f2eee7" stop-opacity="1"></stop><stop offset="80%" stop-color="#343f3a" stop-opacity="1"></stop></linearGradient></defs><g transform="translate(900, 0)"><path d="M0 405.6C-60.6 377.8 -121.2 349.9 -184.5 319.6C-247.8 289.2 -314 256.5 -351.3 202.8C-388.6 149.1 -397.1 74.6 -405.6 0L0 0Z" fill="#8e9289"></path><path d="M0 202.8C-30.3 188.9 -60.6 174.9 -92.2 159.8C-123.9 144.6 -157 128.2 -175.6 101.4C-194.3 74.6 -198.6 37.3 -202.8 0L0 0Z" fill="#343f3a"></path></g><g transform="translate(0, 600)"><path d="M0 -405.6C75.1 -397.4 150.3 -389.3 202.8 -351.3C255.3 -313.3 285.2 -245.5 315.2 -182C345.3 -118.5 375.4 -59.2 405.6 0L0 0Z" fill="#8e9289"></path><path d="M0 -202.8C37.6 -198.7 75.1 -194.6 101.4 -175.6C127.7 -156.6 142.6 -122.8 157.6 -91C172.6 -59.2 187.7 -29.6 202.8 0L0 0Z" fill="#343f3a"></path></g></svg>